<?xml version="1.0" encoding="UTF-8"?><svg id="Layer_2" xmlns="http://www.w3.org/2000/svg" viewBox="0 0 191.38 61.78"><defs><style>.cls-1{fill:#ff6919;}</style></defs><g id="Layer_1-2"><g><path class="cls-1" d="M55.48,10.89h6.97v10.84h11.99V10.89h6.97v27.98h-6.97v-11.69h-11.99v11.69h-6.97V10.89Z"/><path class="cls-1" d="M84.57,28.41c0-6.85,4.51-10.89,11.44-10.89s11.44,4.04,11.44,10.89-4.51,10.8-11.44,10.8-11.44-4-11.44-10.8Zm16.41,0c0-3.74-1.83-5.95-4.98-5.95s-4.98,2.21-4.98,5.95,1.83,5.87,4.98,5.87,4.98-2.17,4.98-5.87Z"/><path class="cls-1" d="M110.29,17.86h6.46l-.26,5.57h.09c1.06-4,3.53-5.91,8.29-5.91,5.06,0,8.33,2.76,8.33,8.21v13.14h-6.46v-11.69c0-2.98-1.7-4.29-4.55-4.29-3.4,0-5.44,2-5.44,6v9.99h-6.46V17.86Z"/><path class="cls-1" d="M135.85,28.2c0-6.42,4-10.67,10.12-10.67,3.4,0,5.61,1.28,6.55,3.44h.04V9.4h6.46v29.47h-6.46c.04-.43,.13-2.25,.26-4.51h-.09c-.81,2.98-3.19,4.85-7.02,4.85-6.08,0-9.87-4.42-9.87-11.01Zm16.71,.34v-1.02c0-3.02-2.13-5.06-5.27-5.06s-5.02,2.3-5.02,5.78,1.96,6.04,4.93,6.04c3.23,0,5.36-2.3,5.36-5.74Z"/><path class="cls-1" d="M34.07,10.89H17.22v5.44h5.58v17.05h-5.58v5.44h5.58l12.16,.04c8.33,0,13.57-4.81,13.57-14.03s-5.53-13.95-14.46-13.95Zm.81,22.5h-5.1V16.38h4.68c4.13,0,7.14,2.47,7.14,8.46s-2.85,8.55-6.72,8.55Z"/><polygon class="cls-1" points="54.17 11.29 48.49 16.97 47.08 14.61 50.32 7.44 54.17 11.29"/><path class="cls-1" d="M191.38,43.33l-167.37,.98c-17.26-.03-18.92-10.05-18.92-19.43C5.09,13.07,11.01,5.45,24.08,5.45H163.75c18.33,0,23.13,7.12,23.13,17.01,0,11.82-1.75,11.47-11.15,11.47-4.95,0-5.14-3.1-5.14-4.85v-6.2h6.72v-5.02h-6.72v-4.76h-5.32l-.3,2.93c-.13,1.28-.47,1.83-1.45,1.83h-2.51v5.02h3.1v8.76c0,4.68,1.9,7.32,12.86,7.28,12.95-.05,14.39-1.67,14.39-18.56C191.38,5.53,178.45-.11,163.75,0,163.75,0,61.22,0,23.7,0,9.62,0,0,9.4,0,24.88c0,10.72,3.07,24.33,23.7,24.51l167.69-.61v-5.44Z"/><g><path class="cls-1" d="M28.8,58.37c0-2.11,1.19-3.39,3.32-3.39,1.63,0,3,.71,3,2.1,0,.16-.01,.29-.05,.49l-.73,.05s.01-.2,.01-.29c0-1.25-1.05-1.68-2.26-1.68-1.51,0-2.39,.97-2.39,2.69s.97,2.77,2.52,2.77c.87,0,2.18-.46,2.18-1.67,0-.1,0-.17-.01-.3l.76,.09c.01,.09,.03,.22,.03,.33,0,1.46-1.46,2.22-2.97,2.22-2.15,0-3.41-1.27-3.41-3.41Z"/><path class="cls-1" d="M54.35,57.77c.03-.22,.03-.3,.03-.47,.01-.93-.47-1.55-1.51-1.55-1.16,0-1.89,1.12-1.89,2.35v3.53h-.89v-6.48h.68l.14,1.5c.42-1.05,1.29-1.59,2.21-1.59,1.3,0,2.1,.76,2.09,1.92,0,.16-.03,.39-.08,.59l-.77,.21Z"/><path class="cls-1" d="M69.48,58.42c0-2.11,1.14-3.44,3.27-3.44,1.89,0,3.16,.84,3.16,2.77,0,.22-.03,.54-.05,.79h-5.47c.03,1.68,.87,2.59,2.48,2.59,1.08,0,2.15-.39,2.15-1.57,0-.12-.01-.28-.01-.28l.77,.09c.01,.08,.03,.17,.03,.28,0,1.47-1.37,2.14-3.03,2.14-2.11,0-3.29-1.22-3.29-3.36Zm5.52-.49c.01-.12,.03-.2,.03-.31,0-1.48-1.04-1.99-2.26-1.99s-2.31,.64-2.38,2.31h4.61Z"/><path class="cls-1" d="M90.41,60.06c-.01-1.43,1.52-1.65,2.83-1.81,1.09-.12,2.17-.28,2.17-1.21,0-.72-.58-1.43-1.88-1.43-1.08,0-1.88,.51-1.88,1.55,0,.13,.01,.29,.01,.29l-.81,.05c-.01-.13-.01-.24-.01-.37-.01-1.36,1.15-2.15,2.72-2.15,1.8,0,2.72,1,2.72,2.26v3.04c0,.51,.29,.8,.67,.8,.24,0,.5-.09,.72-.22v.63c-.34,.18-.72,.24-.98,.24-.56,0-1.12-.35-1.18-1.19-.01-.14-.01-.26-.01-.28-.62,1.19-1.86,1.52-2.93,1.52-1.19,0-2.15-.54-2.15-1.72Zm4.97-1.89c-.45,.49-1.19,.59-1.86,.67-1.06,.13-2.21,.18-2.21,1.14,0,.77,.64,1.13,1.52,1.13,1.13,0,2.55-.75,2.55-1.99v-.94Z"/><path class="cls-1" d="M116.86,59.67c.03,.12,.04,.24,.04,.37,0,1.18-1.01,1.75-2.31,1.75-1.6,0-2.42-.76-2.42-2.2v-3.78h-1.36v-.64h.59c.75,0,.85-.38,1.08-1.8h.51l.08,1.78h2.82v.66h-2.82v3.67c0,1.09,.52,1.63,1.64,1.63,.87,0,1.54-.34,1.54-1.21,0-.14-.03-.31-.05-.43l.67,.21Z"/><path class="cls-1" d="M131.46,53.83v-.88h.97v.88h-.97Zm.04,7.79v-6.48h.89v6.48h-.89Z"/><path class="cls-1" d="M149.63,61.62l-2.77-6.48h.97l2.35,5.7,2.36-5.7h.93l-2.78,6.48h-1.06Z"/><path class="cls-1" d="M167.3,58.42c0-2.11,1.14-3.44,3.27-3.44,1.89,0,3.16,.84,3.16,2.77,0,.22-.03,.54-.05,.79h-5.47c.03,1.68,.87,2.59,2.48,2.59,1.08,0,2.15-.39,2.15-1.57,0-.12-.01-.28-.01-.28l.77,.09c.01,.08,.03,.17,.03,.28,0,1.47-1.37,2.14-3.03,2.14-2.11,0-3.29-1.22-3.29-3.36Zm5.52-.49c.01-.12,.03-.2,.03-.31,0-1.48-1.04-1.99-2.26-1.99s-2.31,.64-2.38,2.31h4.61Z"/></g></g></g></svg>